<?xml version="1.0" standalone="no"?><!DOCTYPE svg PUBLIC "-//W3C//DTD SVG 1.1//EN" "http://www.w3.org/Graphics/SVG/1.1/DTD/svg11.dtd"><svg t="1776696746945" class="icon" viewBox="0 0 1024 1024" version="1.1" xmlns="http://www.w3.org/2000/svg" p-id="3697" xmlns:xlink="http://www.w3.org/1999/xlink" width="256" height="256"><path d="M710.526039 263.954486a198.526039 198.526039 0 1 0-397.052078 0c0 71.254267 65.428446 179.256018 198.526039 318.627571 134.442013-139.819694 198.526039-247.373304 198.526039-318.627571z m-165.811816 373.748796a51.087965 51.087965 0 0 1-11.203501 8.066521 44.814004 44.814004 0 0 1-53.776805-8.962801C328.262582 480.854267 252.078775 356.719475 252.078775 263.954486a259.921225 259.921225 0 1 1 519.84245 0c0 94.109409-76.183807 216.899781-226.758862 372.404376z m-31.817943-255.439825a122.342232 122.342232 0 0 1 0-244.684464 122.342232 122.342232 0 0 1 0 244.684464z m0-61.395186a61.395186 61.395186 0 1 0 0-122.342232 61.395186 61.395186 0 0 0 0 122.342232z m12.547921 329.831073h-5.82582v372.852516h-19.718162v-383.607878" fill="#D0261C" p-id="3698"></path></svg>