<?xml version="1.0" standalone="no"?><!DOCTYPE svg PUBLIC "-//W3C//DTD SVG 1.1//EN" "http://www.w3.org/Graphics/SVG/1.1/DTD/svg11.dtd"><svg t="1776433439239" class="icon" viewBox="0 0 1024 1024" version="1.1" xmlns="http://www.w3.org/2000/svg" p-id="2755" xmlns:xlink="http://www.w3.org/1999/xlink" width="256" height="256"><path d="M959.971556 441.628444a448.056889 448.056889 0 0 0-896 0 488.448 488.448 0 0 0 128 326.428445A1096.988444 1096.988444 0 0 0 511.971556 1024a1247.118222 1247.118222 0 0 0 319.886222-256 488.448 488.448 0 0 0 128.113778-326.371556z m-448 128a144.839111 144.839111 0 0 1-147.171556-147.228444 147.171556 147.171556 0 1 1 294.4 0 144.839111 144.839111 0 0 1-147.228444 147.171556z" fill="#d81e06" p-id="2756"></path></svg>